<?xml version="1.0" encoding="UTF-8" standalone="no"?>
<!-- Created with Inkscape (http://www.inkscape.org/) -->

<svg
   width="400"
   height="400"
   viewBox="0 0 105.83333 105.83333"
   version="1.1"
   id="svg201"
   sodipodi:docname="DobongGu.svg"
   inkscape:version="1.2.1 (9c6d41e410, 2022-07-14)"
   xmlns:inkscape="http://www.inkscape.org/namespaces/inkscape"
   xmlns:sodipodi="http://sodipodi.sourceforge.net/DTD/sodipodi-0.dtd"
   xmlns="http://www.w3.org/2000/svg"
   xmlns:svg="http://www.w3.org/2000/svg">
  <sodipodi:namedview
     id="namedview20704"
     pagecolor="#ffffff"
     bordercolor="#000000"
     borderopacity="0.25"
     inkscape:showpageshadow="2"
     inkscape:pageopacity="0.0"
     inkscape:pagecheckerboard="0"
     inkscape:deskcolor="#d1d1d1"
     showgrid="false"
     inkscape:zoom="1.4796209"
     inkscape:cx="42.916397"
     inkscape:cy="141.25239"
     inkscape:window-width="1920"
     inkscape:window-height="1017"
     inkscape:window-x="-8"
     inkscape:window-y="-8"
     inkscape:window-maximized="1"
     inkscape:current-layer="svg201" />
  <defs
     id="defs198">
    <filter
       style="color-interpolation-filters:sRGB;"
       inkscape:label="Drop Shadow"
       id="filter9495"
       x="-0.033732329"
       y="-0.017708116"
       width="1.1189112"
       height="1.0790279">
      <feFlood
         flood-opacity="0.498039"
         flood-color="rgb(212,212,212)"
         result="flood"
         id="feFlood9485" />
      <feComposite
         in="flood"
         in2="SourceGraphic"
         operator="in"
         result="composite1"
         id="feComposite9487" />
      <feGaussianBlur
         in="composite1"
         stdDeviation="0.5"
         result="blur"
         id="feGaussianBlur9489" />
      <feOffset
         dx="2.02492"
         dy="3.27103"
         result="offset"
         id="feOffset9491" />
      <feComposite
         in="SourceGraphic"
         in2="offset"
         operator="over"
         result="composite2"
         id="feComposite9493" />
    </filter>
  </defs>
  <g
     id="layer1"
     style="fill:#e3f3f3;fill-opacity:1;stroke:none;stroke-opacity:1;filter:url(#filter9495)"
     transform="matrix(1.0829986,0,0,1.0829986,-3.9569714,-6.9452083)">
    <path
       id="Dobong-gu"
       fill-rule="evenodd"
       clip-rule="evenodd"
       fill="#c8c8c8"
       d="m 72.072919,27.018087 c -0.372827,2.326018 -0.07343,4.669832 -0.515817,7.094636 -0.532826,2.922868 -2.323507,5.700523 -2.963513,8.642479 -0.223388,1.026305 -0.251721,2.373218 -0.38648,3.6118 -0.13089,1.200923 -0.507314,2.612577 -0.386472,3.611802 0.20071,1.6652 1.483044,3.621344 2.190551,5.417828 0.58925,1.497288 1.902763,4.113476 2.061731,5.546795 0.138878,1.252513 -0.245542,2.999219 -0.386993,4.514817 -0.140939,1.516371 -0.382356,3.070401 -0.515304,4.514814 -0.292438,3.184408 -0.205868,6.543184 -0.772954,9.287569 -0.407605,1.970843 -1.435118,3.714705 -1.804079,5.546798 -0.44445,2.207361 -0.327476,4.755722 -0.772952,7.094628 -1.755385,0.0062 -3.449185,0.07298 -5.025754,0.257929 -3.811444,-4.929306 -8.168844,-10.190577 -12.498681,-14.963319 -1.263008,-1.392311 -2.890075,-4.147008 -4.509928,-4.772747 -1.807691,-0.698219 -4.540599,0.01083 -5.669889,-1.805772 -1.148867,-1.257671 -2.351582,-2.461691 -3.607638,-3.611804 -0.03813,-0.263085 -0.348855,-0.252767 -0.386988,-0.515861 -1.020047,-1.128701 -2.093935,-2.203758 -3.221162,-3.224899 -0.640004,-2.507864 0.627126,-4.174867 0.901783,-6.191626 0.297844,-0.432808 0.04535,-1.416813 0.128828,-2.0637 0,-1.075054 0,-2.149853 0,-3.224907 -0.493145,-3.483092 0.755436,-6.547049 0.644648,-9.545748 -0.118267,-3.194213 -1.349066,-6.138233 -1.546427,-9.416527 3.028953,-0.341759 1.948618,-5.463484 2.319379,-9.1586 0.215914,-2.149334 1.403945,-3.587036 1.675255,-5.030675 2.575999,-1.162235 5.822404,-1.652818 9.792821,-1.418878 0.561163,-0.08331 1.45676,0.168174 1.804075,-0.128964 0.889152,0.157855 2.048586,-0.207118 2.705859,0 2.364724,0.744646 0.914922,5.379658 2.57703,6.449553 1.134185,0.730202 3.618202,0.313902 5.283406,0.386897 1.917187,0.0846 3.68416,0.163526 5.411713,0.257932 2.313454,1.124317 3.547864,3.328075 7.473959,2.83775 z"
       style="fill:#e3f3f3;fill-opacity:1;stroke:none;stroke-width:0.25779;stroke-opacity:1" />
  </g>
</svg>
