<?xml version="1.0" encoding="UTF-8" standalone="no"?>
<!-- Created with Inkscape (http://www.inkscape.org/) -->

<svg
   width="400"
   height="400"
   viewBox="0 0 105.83333 105.83333"
   version="1.1"
   id="svg201"
   xmlns="http://www.w3.org/2000/svg"
   xmlns:svg="http://www.w3.org/2000/svg">
  <defs
     id="defs198" />
  <path
     id="Dongjak-gu"
     fill-rule="evenodd"
     clip-rule="evenodd"
     fill="#c8c8c8"
     d="m 39.984631,24.392188 c 4.191918,0.590383 8.483427,0.765805 13.184038,0.488189 1.845354,-0.107731 4.122594,0.216431 5.696842,-0.16273 0.606656,0.01008 1.029427,-0.164031 1.464892,-0.325459 2.117114,2.245018 4.222185,4.644631 6.348087,7.16206 1.983676,2.34819 4.195498,5.265933 6.999006,6.673221 2.502783,1.256598 5.697167,0.983213 9.114816,1.790677 0.522688,2.13599 0.858889,4.458143 1.627624,6.347762 2.191643,0.521386 5.185546,0.24019 7.487194,0.650919 1.362374,2.544441 2.51092,5.301733 3.743438,7.975709 -1.372465,3.68062 -2.504415,8.258533 -3.09252,13.347092 -0.659705,5.710511 -0.630089,10.370765 0.65092,14.64893 -2.512223,1.177184 -4.504033,2.874452 -8.789032,2.27887 -0.976379,0 -1.953082,0 -2.929787,0 -1.392316,-0.985173 -2.64273,-2.085548 -4.068893,-3.25525 -1.181744,-0.969217 -3.175509,-2.056253 -3.906491,-3.4183 -1.149848,-2.142174 -1.309322,-5.256495 -1.953082,-7.812653 -0.657428,-2.61051 -1.427139,-5.091162 -2.115811,-7.65025 -4.070522,-1.463917 -7.666849,-3.401377 -12.04493,-4.557735 -2.549974,0 -5.099948,0 -7.649922,0 -1.574249,0.108051 -3.57973,-0.215454 -4.882869,0.163055 -2.170165,0 -4.340328,0 -6.510492,0 -1.791002,0.10773 -4.013891,-0.216105 -5.534112,0.162731 -1.537145,1.338289 -1.646499,4.104694 -2.767055,5.859571 -2.679183,2.00125 -6.359804,0.930815 -9.603333,1.953083 -3.066804,0.966939 -5.424432,4.489061 -8.626627,4.395004 0.395758,-2.42565 0.683465,-4.959351 1.139107,-7.32479 1.562205,-1.025849 2.479677,-2.8865 4.39468,-3.743435 2.870877,-1.284915 6.572002,-1.247161 9.928791,-2.278868 0.818205,-2.916441 2.640453,-5.336233 3.255244,-8.301167 0.576391,-2.778448 -0.07356,-5.550061 0.48819,-8.626629 0.206991,-1.132599 1.083455,-2.355025 1.627623,-3.580704 2.14673,-4.835026 4.73218,-9.321484 7.324464,-12.858903 z"
     style="stroke-width:0.325459;fill:#e0f4f5;fill-opacity:1" />
</svg>
