<?xml version="1.0" encoding="UTF-8" standalone="no"?>
<!-- Created with Inkscape (http://www.inkscape.org/) -->

<svg
   width="400"
   height="400"
   viewBox="0 0 105.83333 105.83333"
   version="1.1"
   id="svg201"
   sodipodi:docname="DongdaemunGu.svg"
   inkscape:version="1.2.1 (9c6d41e410, 2022-07-14)"
   xmlns:inkscape="http://www.inkscape.org/namespaces/inkscape"
   xmlns:sodipodi="http://sodipodi.sourceforge.net/DTD/sodipodi-0.dtd"
   xmlns="http://www.w3.org/2000/svg"
   xmlns:svg="http://www.w3.org/2000/svg">
  <sodipodi:namedview
     id="namedview13450"
     pagecolor="#ffffff"
     bordercolor="#000000"
     borderopacity="0.25"
     inkscape:showpageshadow="2"
     inkscape:pageopacity="0.0"
     inkscape:pagecheckerboard="0"
     inkscape:deskcolor="#d1d1d1"
     showgrid="false"
     inkscape:zoom="2.0925"
     inkscape:cx="200"
     inkscape:cy="200.23895"
     inkscape:window-width="1920"
     inkscape:window-height="1017"
     inkscape:window-x="-8"
     inkscape:window-y="-8"
     inkscape:window-maximized="1"
     inkscape:current-layer="svg201" />
  <defs
     id="defs198">
    <filter
       style="color-interpolation-filters:sRGB;"
       inkscape:label="Drop Shadow"
       id="filter14305"
       x="-0.018339996"
       y="-0.015942819"
       width="1.0676275"
       height="1.0753435">
      <feFlood
         flood-opacity="0.498039"
         flood-color="rgb(212,212,212)"
         result="flood"
         id="feFlood14295" />
      <feComposite
         in="flood"
         in2="SourceGraphic"
         operator="in"
         result="composite1"
         id="feComposite14297" />
      <feGaussianBlur
         in="composite1"
         stdDeviation="0.5"
         result="blur"
         id="feGaussianBlur14299" />
      <feOffset
         dx="2.02492"
         dy="3.27103"
         result="offset"
         id="feOffset14301" />
      <feComposite
         in="SourceGraphic"
         in2="offset"
         operator="over"
         result="composite2"
         id="feComposite14303" />
    </filter>
  </defs>
  <g
     id="layer1"
     style="stroke:none;filter:url(#filter14305)">
    <path
       id="Dongdaemun-gu"
       fill-rule="evenodd"
       clip-rule="evenodd"
       fill="#c8c8c8"
       d="m 52.046037,23.200005 c 6.623411,-4.924875 17.539761,-5.552161 26.401834,-8.235561 1.808302,19.449418 3.929904,38.584043 5.931011,57.840067 -2.507598,5.725653 -4.720637,11.745407 -7.269922,17.428931 -8.740423,-3.635835 -18.031334,-6.720197 -27.358966,-9.767797 -0.763562,-3.001651 -1.613963,-5.917129 -2.677827,-8.618526 -0.38407,-0.573681 -1.57035,-0.343137 -2.487317,-0.382966 -0.265101,-0.436571 -1.331257,-0.07161 -1.913497,-0.191479 -1.885955,0.117183 -3.803664,-0.113363 -5.738962,-0.1915 -1.955196,-0.07887 -4.331959,-0.642986 -5.73973,-0.191478 -1.90164,0.609681 -1.714565,3.262826 -3.443682,4.213722 -0.573821,0 -1.148407,0 -1.722224,0 -0.265106,-0.436961 -1.331262,-0.07161 -1.912739,-0.191479 -2.638803,-0.23131 -3.471225,-2.27058 -5.165902,-3.447416 0,-0.765924 0,-1.532226 0,-2.298145 0.439924,-0.453422 0.06884,-1.718726 0.191277,-2.48963 0,-1.276789 0,-2.553576 0,-3.830371 -0.679785,-3.376182 2.559624,-4.637269 3.634965,-6.894823 1.219549,-2.560091 0.9468,-4.935984 2.104772,-7.660743 5.024743,-3.716638 9.864721,-7.61747 16.453316,-9.767797 2.289163,-3.58183 3.758144,-7.984344 6.504823,-11.108154 1.482368,-1.325809 2.885545,-2.730516 4.208777,-4.214868 z"
       style="stroke-width:0.382752;fill:#c8eaec;fill-opacity:1;stroke:none;stroke-opacity:1" />
  </g>
</svg>
