<?xml version="1.0" encoding="UTF-8" standalone="no"?>
<!-- Created with Inkscape (http://www.inkscape.org/) -->

<svg
   width="400"
   height="400"
   viewBox="0 0 105.83333 105.83333"
   version="1.1"
   id="svg201"
   sodipodi:docname="EunpyeongGu.svg"
   inkscape:version="1.2.1 (9c6d41e410, 2022-07-14)"
   xmlns:inkscape="http://www.inkscape.org/namespaces/inkscape"
   xmlns:sodipodi="http://sodipodi.sourceforge.net/DTD/sodipodi-0.dtd"
   xmlns="http://www.w3.org/2000/svg"
   xmlns:svg="http://www.w3.org/2000/svg">
  <sodipodi:namedview
     id="namedview32076"
     pagecolor="#ffffff"
     bordercolor="#000000"
     borderopacity="0.25"
     inkscape:showpageshadow="2"
     inkscape:pageopacity="0.0"
     inkscape:pagecheckerboard="true"
     inkscape:deskcolor="#d1d1d1"
     showgrid="false"
     inkscape:zoom="2.0925"
     inkscape:cx="113.97849"
     inkscape:cy="200.23895"
     inkscape:window-width="1920"
     inkscape:window-height="1017"
     inkscape:window-x="-8"
     inkscape:window-y="-8"
     inkscape:window-maximized="1"
     inkscape:current-layer="svg201" />
  <defs
     id="defs198" />
  <g
     id="layer1"
     style="stroke:none">
    <path
       id="Eunpyeong-gu"
       fill-rule="evenodd"
       clip-rule="evenodd"
       fill="#c8c8c8"
       d="m 60.539,16.45753 c 1.84152,0.231321 2.254878,-0.608674 3.156101,-1.579637 1.753417,-1.889196 3.281345,-4.171784 4.369946,-6.1972964 3.5663,2.9478724 7.471444,6.3848804 11.167602,9.6000414 0.945145,0.822013 3.337891,2.277976 3.641535,3.281012 0.20923,0.691043 -0.163347,1.650342 0,2.187335 0,1.174588 0,2.349414 0,3.523994 0.07868,0.569314 -0.158737,1.455232 0.121371,1.822623 0.474031,3.512572 -1.482788,4.59142 -2.306337,6.805242 0.152425,0.04982 0.248054,0.156723 0.242715,0.364476 -1.248311,2.331914 -2.46167,4.244928 -4.127226,6.076055 -0.737144,0.810347 -1.841766,1.553393 -2.184969,2.430319 -0.677195,1.731259 -0.455593,3.670998 -1.09249,5.833068 -0.279616,0.327544 -0.04321,1.171909 -0.121363,1.701132 0,0.891018 0,1.782284 0,2.673305 0,0.810108 0,1.620214 0,2.43032 -0.279616,0.327544 -0.0432,1.172157 -0.121363,1.701132 0,0.891019 0,1.78228 0,2.673307 0,1.012512 0,2.025267 0,3.038023 -2.405124,-0.637591 -3.50416,0.08505 -4.976995,0.972177 -0.720153,0.433731 -1.611182,0.876444 -2.063613,1.336656 -1.652687,1.681207 -2.268954,4.608914 -2.913381,6.805005 -2.323565,0.954928 -4.614608,1.942406 -7.161723,2.673545 -0.724038,2.029642 -1.564579,3.942892 -2.791779,5.468346 -0.260678,0.225248 -0.88933,0.08218 -1.335206,0.121488 -0.770151,0.07965 -1.859484,-0.160117 -2.427699,0.121498 -1.133019,0 -2.265799,0 -3.398818,0 -1.295407,0.08062 -2.912652,-0.161352 -4.00587,0.121489 -0.773309,-0.08548 -1.042486,0.33386 -1.335203,0.728951 -0.49588,0.394847 -0.941032,0.840237 -1.335212,1.336656 -0.455346,0.354263 -0.859957,0.759313 -1.213849,1.215157 0,0.04055 0,0.08092 0,0.121489 -0.495878,0.394614 -0.940784,0.840247 -1.335207,1.336656 -0.454858,1.529586 -0.569909,3.399102 -0.849767,5.10388 -1.779873,-1.102422 -3.332312,-2.550608 -5.098352,-3.888713 -1.710212,-1.295839 -3.854168,-2.358893 -5.219715,-3.888469 -0.768697,-0.861137 -1.015547,-2.052974 -1.94201,-2.794801 -2.396145,0.0088 -2.847606,-1.929053 -3.884264,-3.281007 2.609007,1.2363 6.181136,1.508444 10.075101,1.458144 1.392255,-1.638199 3.489604,-3.484869 4.855635,-5.468355 1.336182,-1.940218 2.287646,-4.082363 1.942257,-7.534192 0,-0.769528 0,-1.539056 0,-2.308828 0,-1.741712 0,-3.483418 0,-5.225368 -0.08035,-1.256226 0.161163,-2.834646 -0.121363,-3.888468 0,-2.511238 0,-5.022717 0,-7.534192 0.563362,-0.88276 1.970415,-1.317702 2.30634,-2.308836 0.275244,-0.811809 0.151699,-2.186609 0.242721,-3.281008 0.625977,-7.524962 1.217486,-15.914947 1.942255,-22.967064 2.795175,0.104965 5.887195,0.133396 8.375812,0.242984 0.896611,0.0396 1.941774,0.336534 2.792023,0 1.758753,-0.696391 1.545645,-4.273113 4.612671,-3.281015 0.168198,0.277251 0.84491,0.04544 1.213845,0.12149 0.768212,2.42e-4 1.536907,2.42e-4 2.305848,2.42e-4 z"
       style="stroke-width:0.242852;fill:#c8eaec;fill-opacity:1;stroke:none;stroke-opacity:1" />
  </g>
</svg>
