<?xml version="1.0" encoding="UTF-8" standalone="no"?>
<!-- Created with Inkscape (http://www.inkscape.org/) -->

<svg
   width="400"
   height="400"
   viewBox="0 0 105.83333 105.83333"
   version="1.1"
   id="svg201"
   xmlns="http://www.w3.org/2000/svg"
   xmlns:svg="http://www.w3.org/2000/svg">
  <defs
     id="defs198" />
  <path
     id="Gangdong-gu"
     fill-rule="evenodd"
     clip-rule="evenodd"
     fill="#c8c8c8"
     d="m 23.868306,33.214221 c 2.015234,-2.374544 4.703735,-3.554785 7.736078,-5.450834 3.141684,-1.963904 4.983238,-4.538144 9.318874,-4.571543 3.751316,-0.11708 7.97093,0.234501 11.429032,-0.175788 6.512945,-1.530762 10.338442,-5.771822 15.472858,-8.791509 3.081212,-1.812023 7.030114,-3.128323 10.022025,-4.9231192 0,0.586078 0,1.1721552 0,1.7582322 0.114608,0.882104 -0.22993,2.223016 0.176492,2.813311 -0.0907,3.899682 3.876124,3.742878 5.978198,5.450834 0.531583,0.405718 1.813429,0.06188 2.63682,0.175789 0.381811,2.490211 0.521738,5.221957 1.582795,7.033277 -0.679245,3.664124 -3.843429,6.942219 -3.340676,11.252891 0.154342,1.326497 1.778623,2.901559 2.109457,4.747331 0.404312,2.253955 -0.248564,4.860188 0.176491,6.857139 0.2679,1.259346 1.553966,2.262039 1.757881,3.341026 -0.946795,1.690377 -1.764913,3.509432 -2.813312,5.098907 -4.944565,1.340207 -9.528412,3.014061 -15.297071,4.92347 -2.364349,0.782609 -4.896048,1.623225 -7.56029,2.461384 -2.190319,0.689088 -6.576229,1.441461 -7.560994,2.637523 -0.775224,0.941872 -0.601546,3.534393 -0.703151,5.626271 -0.09493,1.94105 -0.04043,4.128907 -0.175788,5.62662 -0.17368,1.926285 -1.497011,3.516465 -2.461735,5.099259 -2.546816,4.179184 -4.636936,7.402783 -7.208714,11.60482 -1.860188,-0.615961 -3.198639,-0.192664 -4.747682,-0.879292 -1.633422,-0.724247 -2.341496,-2.653344 -3.86804,-3.165239 -2.108753,-0.706314 -4.562402,-0.130793 -7.385204,-0.703151 -1.626039,-2.853742 -1.94738,-6.267545 -3.692251,-8.791509 -1.428453,-2.06551 -4.159145,-2.787997 -5.450835,-4.923119 1.814133,-5.121759 5.797489,-12.385318 2.461735,-17.934243 -1.34302,-0.23907 -2.772879,-0.392007 -4.395402,-0.351928 -1.15985,-1.009022 -1.928745,-2.408646 -2.9891,-3.516813 1.420015,-7.429153 1.622523,-16.077219 6.505562,-20.044051 0.834993,-0.688736 1.59721,-1.450601 2.285947,-2.285946 z"
     style="stroke-width:0.26458333;fill:#d5eef2;fill-opacity:1;stroke:#ffffff;stroke-opacity:1;stroke-dasharray:none;paint-order:stroke fill markers" />
</svg>
