<?xml version="1.0" encoding="UTF-8" standalone="no"?>
<!-- Created with Inkscape (http://www.inkscape.org/) -->

<svg
   width="400"
   height="400"
   viewBox="0 0 105.83333 105.83333"
   version="1.1"
   id="svg201"
   xmlns="http://www.w3.org/2000/svg"
   xmlns:svg="http://www.w3.org/2000/svg">
  <defs
     id="defs198" />
  <path
     id="Gangnam-gu"
     fill-rule="evenodd"
     clip-rule="evenodd"
     fill="#c8c8c8"
     d="m 11.8527,19.830731 c 0.763987,-0.801911 1.636723,-1.409172 2.513572,-2.170874 0.817904,-0.710754 1.563614,-1.812413 2.513572,-2.171103 0.718522,-0.271187 1.935327,-0.297461 2.856726,-0.457158 2.312294,-0.400727 4.024868,-0.49554 6.626855,-0.342697 3.653612,0.214528 5.954483,0.724919 8.455032,1.828177 6.042214,2.665957 10.877446,7.487482 17.938614,8.226566 0.24857,0.58944 0.05186,1.624615 0.114689,2.399568 0,0.761702 0,1.523404 0,2.285335 0.07311,0.459672 -0.148502,1.214749 0.114233,1.485251 0,0.647469 0,1.29494 0,1.942409 0,0.761702 0,1.523404 0,2.285107 0.07265,0.422432 -0.148045,1.137984 0.114232,1.371019 -0.256566,2.218851 0.574361,2.984437 1.256557,4.341977 0.455102,0.905178 0.737257,1.96 1.142782,2.5138 0.483661,0.660491 1.665282,1.379471 2.513572,2.056641 0.894212,0.713497 1.696124,1.521577 2.628261,2.056642 0.917516,0.526611 2.102107,0.933736 3.198967,1.485251 1.058935,0.532323 2.105304,1.314359 3.085191,1.599711 2.788872,0.81265 6.338533,0.787976 9.026194,1.599484 0.585556,0.747766 1.355255,1.310932 1.942409,2.056641 0.317796,0.977145 0.513134,2.077204 0.914318,2.970959 2.191892,1.616618 4.726026,2.891225 6.85532,4.570214 0.199906,1.448696 0.469496,2.797553 0.685852,4.113284 0.224809,1.371246 0.237832,2.904017 0.685395,4.113283 0.249483,0.673743 1.000905,1.561786 1.485482,2.285335 2.171331,3.242832 4.359569,6.35087 5.712995,10.169205 -1.265928,0.448705 -3.256082,-0.141649 -4.570676,0.45693 -1.130671,0.51496 -1.372615,2.500092 -2.285104,3.656353 -0.469496,0.594923 -1.707775,1.581892 -2.513572,1.828177 -1.311845,0.400728 -2.867464,0.05186 -4.113283,0.342698 -0.974632,0.227322 -1.619816,1.082466 -2.513571,1.256786 -0.99428,0.193966 -2.066924,-0.219326 -3.42789,-0.114233 -1.132043,-0.982857 -1.603823,-2.357987 -2.856725,-3.42766 -0.983085,-0.839381 -2.392257,-1.221374 -3.3132,-2.056642 -0.595608,-0.540319 -2.087484,-2.634886 -2.399796,-3.542121 0,-0.609545 0,-1.218861 0,-1.828177 -0.07151,-0.347267 0.146446,-0.984227 -0.114233,-1.142782 0.08887,-1.002732 -0.167236,-1.660483 -0.114232,-2.627803 -1.003647,-0.651583 -1.734506,-1.713488 -2.970502,-2.170875 -3.414408,-1.263183 -7.704981,0.11903 -10.51213,1.371018 -1.036546,1.667337 -1.947664,3.460331 -3.198967,4.91314 -3.729919,0.07882 -6.461218,1.156261 -9.255116,2.170874 -2.914756,-4.016872 -3.458275,-10.404981 -4.798679,-15.996204 -1.133415,-1.228228 -2.314122,-2.408935 -3.542121,-3.542121 -1.54785,-0.737256 -3.422862,-1.147123 -4.57067,-2.285107 -0.523413,-0.618912 -1.094576,-1.190303 -1.713488,-1.713945 -0.04067,-0.149872 -0.201278,-0.179573 -0.228921,-0.342697 -0.485489,-0.580986 -1.018269,-1.114223 -1.599256,-1.599712 -1.651801,-1.731993 -1.55516,-5.302443 -1.828176,-8.797729 -0.139136,-1.779057 0.0098,-3.850549 -0.457387,-5.256065 C 20.83343,40.483509 18.3836,39.479405 17.79416,37.883577 17.334489,36.639128 17.348882,34.890229 17.108309,33.427596 16.851286,31.861697 16.71078,30.014786 16.308681,28.742693 15.817939,27.191644 14.719707,25.7859 14.023575,24.400945 13.234228,22.831619 12.563684,21.328776 11.8527,19.830731 Z"
     style="stroke-width:0.228465;fill-opacity:1;fill:#d1edee" />
</svg>
