<?xml version="1.0" encoding="UTF-8" standalone="no"?>
<!-- Created with Inkscape (http://www.inkscape.org/) -->

<svg
   width="400"
   height="400"
   viewBox="0 0 105.83333 105.83333"
   version="1.1"
   id="svg201"
   xmlns="http://www.w3.org/2000/svg"
   xmlns:svg="http://www.w3.org/2000/svg">
  <defs
     id="defs198" />
  <path
     id="Gangseo-gu"
     fill-rule="evenodd"
     clip-rule="evenodd"
     fill="#c8c8c8"
     d="m 36.291544,13.008613 c 3.384315,1.885157 6.889822,4.168485 9.902687,6.442746 1.014149,0.765563 2.256607,1.449296 3.102091,2.266866 1.009616,0.976456 1.834343,2.428615 2.743999,3.579463 0.934707,1.18234 1.770408,2.529768 2.74424,3.579224 1.565,1.686671 3.604274,2.904557 5.130387,4.533971 1.920467,2.050486 3.077996,4.842916 5.130389,6.919882 1.520628,1.538997 4.127214,2.416208 6.20418,3.579224 0.818763,0.458287 1.653272,1.076654 2.505433,1.550926 0.923256,0.514112 2.034979,0.857172 2.744001,1.431641 0.83427,0.675861 1.52349,1.964125 2.386149,2.982806 0.868385,1.025124 1.95649,1.922853 2.505433,2.863285 0.834986,1.429972 1.185442,3.105668 2.028298,4.414448 1.335024,2.07291 3.683002,3.642922 5.48824,5.249671 1.926431,1.714822 3.984073,3.246185 5.846329,5.011106 0.538208,1.211683 0.606199,2.893582 0.71594,4.533731 0,0.07968 0,0.159125 0,0.238569 -1.43188,0 -2.863522,0 -4.295164,0 -1.412318,-0.416779 -2.61255,-1.046118 -4.414449,-1.073553 -0.916813,1.111246 -1.543529,2.512829 -2.386149,3.698508 -0.04103,2.50424 -0.357135,4.733651 -0.357851,7.277969 -1.31546,1.945756 -2.464638,4.058029 -3.579224,6.204181 -2.067185,0.407711 -3.902483,2.155455 -5.965612,2.266866 -0.79944,0.04341 -2.305037,-0.413676 -3.221374,-0.596419 -2.552431,-0.508387 -4.825977,-1.185202 -5.965612,-2.863522 -0.472126,-0.695424 -0.781069,-1.90305 -1.193075,-2.863523 -0.890571,-2.076966 -1.696691,-3.920614 -2.505433,-5.846328 -0.442304,-1.053036 -0.690414,-2.270683 -1.193076,-2.982568 -0.475226,-0.673236 -1.877762,-1.800705 -2.505433,-1.909015 -1.446194,-0.249781 -3.424393,0.68588 -4.772537,0.477134 -0.787749,1.24055 -1.446671,2.609688 -2.147582,3.937314 -2.044521,-0.141709 -3.942801,-0.21304 -5.965375,-0.357851 -1.608896,-0.115228 -4.559258,-0.688266 -6.084895,-0.35785 -1.1988,0.259322 -2.510681,2.433863 -3.340657,3.340657 -1.136296,1.241026 -2.169292,2.31601 -3.340658,3.340656 C 31.59678,82.627305 30.985092,81.473117 30.445453,80.060798 30.00315,78.902555 29.602834,76.917675 28.775244,76.123484 28.172623,75.545436 26.563249,75.200707 25.55387,74.811127 22.087966,73.473956 18.695301,72.15802 15.531899,70.874051 15.412854,67.61236 14.186618,65.458336 13.14575,63.118708 c 0.967867,-1.264407 2.828214,-1.053513 3.698746,-2.386151 0.397453,-0.608584 0.389818,-1.876331 0.596418,-2.863761 0.600713,-2.868532 1.438561,-6.012133 2.147582,-8.471045 1.311405,-0.6093 2.631875,-1.142022 4.175882,-1.789493 1.128184,-0.473079 3.291035,-0.969775 3.937075,-2.028298 0.742183,-1.215978 0.611925,-3.269088 0.834985,-5.010867 0.224969,-1.755139 0.440396,-3.504314 0.596657,-5.249671 0.91586,-0.851448 1.85987,-1.788539 3.102089,-2.863285 1.545916,-1.337886 3.75147,-2.250882 3.10209,-5.48824 0.275546,-0.400314 0.04175,-1.310449 0.119285,-1.909014 0.447551,-3.16221 -2.129213,-5.979211 -1.431642,-8.94818 0.293914,-1.253433 1.768976,-1.785677 2.266627,-3.10209 z"
     style="stroke-width:0.238567;fill:#dff3f4;fill-opacity:1" />
</svg>
