<?xml version="1.0" encoding="UTF-8" standalone="no"?>
<!-- Created with Inkscape (http://www.inkscape.org/) -->

<svg
   width="400"
   height="400"
   viewBox="0 0 105.83333 105.83333"
   version="1.1"
   id="svg201"
   inkscape:version="1.2.1 (9c6d41e410, 2022-07-14)"
   sodipodi:docname="GangbukGu.svg"
   xmlns:inkscape="http://www.inkscape.org/namespaces/inkscape"
   xmlns:sodipodi="http://sodipodi.sourceforge.net/DTD/sodipodi-0.dtd"
   xmlns="http://www.w3.org/2000/svg"
   xmlns:svg="http://www.w3.org/2000/svg">
  <sodipodi:namedview
     id="namedview203"
     pagecolor="#ffffff"
     bordercolor="#000000"
     borderopacity="0.25"
     inkscape:showpageshadow="2"
     inkscape:pageopacity="0.0"
     inkscape:pagecheckerboard="0"
     inkscape:deskcolor="#d1d1d1"
     inkscape:document-units="mm"
     showgrid="false"
     inkscape:zoom="1.4702451"
     inkscape:cx="207.10832"
     inkscape:cy="157.79682"
     inkscape:window-width="1920"
     inkscape:window-height="1017"
     inkscape:window-x="-8"
     inkscape:window-y="-8"
     inkscape:window-maximized="1"
     inkscape:current-layer="layer1" />
  <defs
     id="defs198">
    <filter
       style="color-interpolation-filters:sRGB;"
       inkscape:label="Drop Shadow"
       id="filter11097"
       x="-0.022921399"
       y="-0.015204562"
       width="1.0845211"
       height="1.0718546">
      <feFlood
         flood-opacity="0.498039"
         flood-color="rgb(212,212,212)"
         result="flood"
         id="feFlood11087" />
      <feComposite
         in="flood"
         in2="SourceGraphic"
         operator="in"
         result="composite1"
         id="feComposite11089" />
      <feGaussianBlur
         in="composite1"
         stdDeviation="0.5"
         result="blur"
         id="feGaussianBlur11091" />
      <feOffset
         dx="2.02492"
         dy="3.27103"
         result="offset"
         id="feOffset11093" />
      <feComposite
         in="SourceGraphic"
         in2="offset"
         operator="over"
         result="composite2"
         id="feComposite11095" />
    </filter>
  </defs>
  <g
     inkscape:label="Layer 1"
     inkscape:groupmode="layer"
     id="layer1">
    <path
       id="Gangbuk-gu"
       fill-rule="evenodd"
       clip-rule="evenodd"
       fill="#c8c8c8"
       d="m 47.337923,13.574753 c 0.225697,3.083904 1.579628,6.001818 1.608585,9.044595 0.02079,2.180635 -0.989402,4.272328 -0.742424,6.690544 -0.28608,0.415714 -0.04355,1.3606 -0.12374,1.98219 0,1.032345 0,2.064937 0,3.09753 0.447686,3.562539 -1.560326,4.987554 -0.866161,8.425233 0.323451,0.419432 0.700358,0.78559 0.989901,1.238966 1.020835,1.125493 2.093881,2.199208 3.217667,3.221392 1.103987,1.207997 2.258705,2.364462 3.465637,3.469147 1.032967,1.237473 3.668076,0.871066 5.445941,1.362834 7.329461,8.025876 14.556971,16.154065 20.173655,25.895073 -2.278008,3.955956 -4.420152,8.047427 -6.559568,12.142114 -1.215104,0.641904 -2.226782,1.487449 -3.465639,2.106322 -0.743912,0.08094 -1.813002,-0.163271 -2.351508,0.123846 -0.742422,0 -1.48485,0 -2.227769,0 -0.86616,0 -1.732817,0 -2.598983,0 -0.538998,0.08007 -1.398724,-0.161543 -1.732812,0.123836 -0.742431,0 -1.484855,0 -2.227769,0 -0.866167,0 -1.732821,0 -2.598988,0 -0.618688,0 -1.237867,0 -1.85656,0 -0.786967,-0.492268 -1.748158,-0.810368 -2.351503,-1.48671 -1.05746,-3.856109 -1.872391,-7.954532 -2.970194,-11.77051 -3.155304,-2.643913 -6.566255,-5.040571 -9.777737,-7.557895 -1.06909,-0.837855 -2.074085,-1.983665 -3.218161,-2.601786 -1.695701,-0.916408 -3.731425,-1.027142 -5.569177,-1.982438 -0.989407,-1.198582 -1.857547,-2.518305 -2.846457,-3.716888 0.312809,-0.719195 0.913926,-1.150019 1.11364,-1.982435 0.286576,-0.497967 0.04305,-1.526344 0.12374,-2.230184 -0.08019,-0.621588 0.162344,-1.566724 -0.12374,-1.982438 0,-1.280339 0,-2.560664 0,-3.841003 0,-1.238961 0,-2.477927 0,-3.716886 -0.08019,-0.580707 0.161846,-1.483732 -0.12374,-1.858564 0,-1.280337 0,-2.560671 0,-3.840763 0,-1.238956 0,-2.477922 0,-3.71688 0,-0.578234 0,-1.156465 0,-1.734695 1.567508,-2.832199 3.527014,-5.753084 5.197966,-8.54911 0.572655,-0.958023 1.419022,-2.075588 1.732817,-2.973409 1.10844,-3.17433 0.940651,-6.540412 2.104037,-10.035811 3.030328,-1.138131 6.078723,-2.257684 9.159044,-3.345274 z"
       style="fill:#d0eef0;fill-opacity:1;stroke:none;stroke-width:0.247608;stroke-opacity:1;filter:url(#filter11097)" />
  </g>
</svg>
