<?xml version="1.0" encoding="UTF-8" standalone="no"?>
<!-- Created with Inkscape (http://www.inkscape.org/) -->

<svg
   width="400"
   height="400"
   viewBox="0 0 105.83333 105.83333"
   version="1.1"
   id="svg201"
   inkscape:version="1.2.1 (9c6d41e410, 2022-07-14)"
   sodipodi:docname="GangbukGu.svg"
   xmlns:inkscape="http://www.inkscape.org/namespaces/inkscape"
   xmlns:sodipodi="http://sodipodi.sourceforge.net/DTD/sodipodi-0.dtd"
   xmlns="http://www.w3.org/2000/svg"
   xmlns:svg="http://www.w3.org/2000/svg">
  <sodipodi:namedview
     id="namedview203"
     pagecolor="#ffffff"
     bordercolor="#000000"
     borderopacity="0.25"
     inkscape:showpageshadow="2"
     inkscape:pageopacity="0.0"
     inkscape:pagecheckerboard="0"
     inkscape:deskcolor="#d1d1d1"
     inkscape:document-units="mm"
     showgrid="false"
     inkscape:zoom="1.0396203"
     inkscape:cx="212.09667"
     inkscape:cy="313.57604"
     inkscape:window-width="1920"
     inkscape:window-height="1017"
     inkscape:window-x="-8"
     inkscape:window-y="-8"
     inkscape:window-maximized="1"
     inkscape:current-layer="layer1" />
  <defs
     id="defs198" />
  <g
     inkscape:label="Layer 1"
     inkscape:groupmode="layer"
     id="layer1">
    <path
       id="Gangbuk-gu"
       fill-rule="evenodd"
       clip-rule="evenodd"
       fill="#c8c8c8"
       d="m 46.881044,13.920752 c 0.207753,2.838719 1.45404,5.524645 1.480695,8.325508 0.01914,2.007264 -0.91074,3.932658 -0.683398,6.158615 -0.263335,0.382662 -0.04009,1.252426 -0.113902,1.824596 0,0.950269 0,1.900765 0,2.851262 0.412093,3.279301 -1.436273,4.591021 -0.797297,7.755389 0.297735,0.386085 0.644676,0.723132 0.911199,1.140462 0.939674,1.036011 1.927408,2.024361 2.961848,2.965277 1.016215,1.111955 2.079127,2.176476 3.190103,3.193333 0.950841,1.139089 3.376447,0.801813 5.012963,1.254483 6.746735,7.387782 13.399625,14.869742 18.569757,23.836295 -2.096896,3.64144 -4.06873,7.40762 -6.038052,11.17676 -1.118498,0.59087 -2.049743,1.36919 -3.190105,1.93886 -0.684768,0.0745 -1.66886,-0.15029 -2.164552,0.114 -0.683396,0 -1.366798,0 -2.050651,0 -0.797297,0 -1.59505,0 -2.392352,0 -0.496145,0.0737 -1.287519,-0.1487 -1.595046,0.11399 -0.683404,0 -1.366802,0 -2.050651,0 -0.797303,0 -1.595054,0 -2.392356,0 -0.5695,0 -1.139451,0 -1.708955,0 -0.7244,-0.45313 -1.609172,-0.74594 -2.164548,-1.36851 -0.973387,-3.54953 -1.723527,-7.32211 -2.73405,-10.8347 -2.904443,-2.43371 -6.044207,-4.639822 -9.000362,-6.957007 -0.984092,-0.771242 -1.909185,-1.825955 -2.962302,-2.394932 -1.560885,-0.84355 -3.43476,-0.94548 -5.126402,-1.824825 -0.910744,-1.10329 -1.709863,-2.318089 -2.62015,-3.421379 0.287939,-0.662015 0.841264,-1.058587 1.0251,-1.824822 0.263792,-0.458376 0.03963,-1.404993 0.113902,-2.052874 -0.07381,-0.572169 0.149437,-1.442162 -0.113902,-1.824825 0,-1.178546 0,-2.35708 0,-3.535626 0,-1.140458 0,-2.28092 0,-3.421376 -0.07381,-0.534538 0.148979,-1.365769 -0.113902,-1.7108 0,-1.178544 0,-2.357086 0,-3.535404 0,-1.140454 0,-2.280916 0,-3.421371 0,-0.532262 0,-1.064521 0,-1.596779 1.442884,-2.607026 3.2466,-5.295687 4.784704,-7.869416 0.527126,-0.881856 1.306203,-1.91057 1.59505,-2.73701 1.020314,-2.921956 0.865865,-6.020419 1.936756,-9.237918 2.789403,-1.047644 5.595437,-2.078187 8.430858,-3.079309 z"
       style="fill:#d0eef0;fill-opacity:1;stroke-width:0.227922;stroke:#ffffff;stroke-opacity:1" />
  </g>
</svg>
