<?xml version="1.0" encoding="UTF-8" standalone="no"?>
<!-- Created with Inkscape (http://www.inkscape.org/) -->

<svg
   width="400"
   height="400"
   viewBox="0 0 105.83333 105.83333"
   version="1.1"
   id="svg201"
   xmlns="http://www.w3.org/2000/svg"
   xmlns:svg="http://www.w3.org/2000/svg">
  <defs
     id="defs198" />
  <path
     id="Geumcheon-gu"
     fill-rule="evenodd"
     clip-rule="evenodd"
     fill="#c8c8c8"
     d="m 42.7182,14.89143 c 3.777658,-0.356162 5.300742,-2.966521 8.267265,-4.13382 3.271965,1.487395 6.681814,7.022197 10.897913,4.32167 0.727353,1.777434 1.845058,3.165268 2.630271,4.885219 1.642181,0.737874 3.350487,1.409625 4.885218,2.254948 -0.04246,1.397978 -0.302437,2.578424 -0.187849,4.133445 -0.311079,0.262989 -0.311079,1.803732 0,2.067097 0.47526,7.455004 1.582821,15.904859 2.442798,23.110773 0.316339,2.65131 0.257353,5.700111 0.939248,7.70334 0.735996,2.162526 3.327194,3.914413 3.945595,6.012692 1.793589,0.46136 3.317426,1.192095 5.073068,1.691024 0.452718,2.365779 1.257091,4.379528 1.878874,6.576618 -0.22805,0.96179 -1.18646,1.193222 -1.691024,1.878497 -6.151701,1.301798 -7.711981,7.193892 -9.394738,12.964634 -3.039033,0.249464 -5.53067,3.288496 -8.642965,3.758126 -3.755492,0.56655 -7.417433,-0.96142 -11.83716,-0.56393 C 49.312476,81.457097 45.865058,69.337034 42.905673,58.482703 42.153148,55.722815 41.468249,49.162352 39.523628,47.773016 38.381127,46.956246 35.984164,47.092625 34.45056,47.021242 33.36291,34.204634 28.032111,25.631173 24.492271,15.26713 c 0.939249,0 1.878874,0 2.818122,0 1.130479,0.312958 3.567265,0.312958 4.697369,0 1.064732,0 2.129464,0 3.194196,0 0.694668,-0.119845 1.871735,0.243077 2.254949,-0.18785 1.001989,0 2.003979,0 3.00597,0 0.694667,-0.119845 1.872109,0.243453 2.255323,-0.18785 z"
     style="stroke-width:0.375699;fill:#c5e7e9;fill-opacity:1" />
</svg>
