<?xml version="1.0" encoding="UTF-8" standalone="no"?>
<!-- Created with Inkscape (http://www.inkscape.org/) -->

<svg
   width="400"
   height="400"
   viewBox="0 0 105.83333 105.83333"
   version="1.1"
   id="svg201"
   xmlns="http://www.w3.org/2000/svg"
   xmlns:svg="http://www.w3.org/2000/svg">
  <defs
     id="defs198" />
  <path
     id="Guro-gu"
     fill-rule="evenodd"
     clip-rule="evenodd"
     fill="#c8c8c8"
     d="m 93.253938,57.086484 c 0.09679,0.514172 -0.196624,1.418246 0.152669,1.679608 0,0.305326 0,0.61096 0,0.916287 -2.141574,1.013688 -3.396467,2.914964 -6.260438,3.206551 -0.564552,0.0974 -1.521147,-0.197546 -1.832269,0.152664 -0.814312,0 -1.628624,0 -2.443241,0 -0.564238,0.0974 -1.521138,-0.197547 -1.832266,0.152664 -0.865298,0 -1.730595,0 -2.595893,0 -1.170627,0 -2.341254,0 -3.51188,0 -0.937356,-0.0806 -2.210571,0.174647 -2.901222,-0.152664 -0.618289,-2.559561 0.458297,-5.448877 -0.610656,-7.482359 -0.422267,-0.802706 -2.342779,-1.702202 -3.053886,-2.137597 -1.118111,-0.68424 -2.51651,-1.799602 -3.511878,-1.832272 -0.860108,-0.02869 -2.2982,0.832934 -3.053887,1.221311 -0.865908,0.445472 -2.183398,0.985291 -2.901223,1.527249 -0.737978,0.556917 -2.433155,2.752833 -2.748559,3.664541 -0.689736,1.993483 0.142283,5.077597 -1.526944,5.802751 -0.827131,0.699812 -1.590756,1.463129 -2.290566,2.290262 -1.081471,0.954455 -2.099739,1.972418 -3.053888,3.054192 -0.332807,0.532492 -0.686376,1.044527 -1.221615,1.37428 -0.827134,0.699506 -1.590758,1.463129 -2.290568,2.290568 -1.081472,0.954148 -2.099739,1.972111 -3.053886,3.053886 -0.794769,0.845762 -1.228639,1.999285 -2.290569,2.290565 -1.85975,0.509897 -4.943254,0.267775 -6.718733,0 -1.768763,-0.266548 -3.161973,-1.475641 -4.7338,-1.527245 -3.166247,-0.1035 -6.024113,1.663725 -8.856331,1.832574 -1.576407,0.09369 -2.963816,-0.33281 -4.733495,-0.457989 1.809678,-3.701182 3.633094,-7.958975 5.497118,-11.910831 0.646685,-1.37031 1.829829,-2.866719 1.832272,-4.122533 0.0037,-1.668615 -1.629229,-3.951549 -2.595895,-6.108384 -0.629282,-1.403897 -2.621543,-4.883105 -2.595897,-6.107773 0.01343,-0.638135 0.867132,-2.006613 1.374281,-3.053887 2.695432,-5.567954 5.677567,-10.877906 6.566069,-17.407947 -0.08824,-0.980713 -1.039029,-1.098874 -1.374279,-1.832272 2.310719,0.234186 4.435189,0.654622 6.566071,1.068953 0.693703,1.647242 1.04361,3.638894 2.137598,4.886463 0.164877,0.252505 1.362371,0.252505 1.526943,0 1.068646,0 2.137599,0 3.20655,0 1.222532,-0.100752 2.848707,0.202126 3.817512,-0.152665 1.719299,-0.668057 3.270669,-2.576354 5.039126,-4.123144 0.683324,-0.597525 1.586483,-1.191388 2.442926,-1.984934 1.330617,-1.232913 1.920206,-2.565668 4.122839,-2.137904 0.261055,0.349601 1.165434,0.05618 1.679607,0.152969 1.2723,0 2.544905,0 3.817511,0 0.654623,2.29698 1.546484,4.35733 2.137599,6.718429 1.519005,0.396926 2.867942,1.786471 4.733493,1.985239 2.360488,0.251591 4.961573,-0.610044 7.787686,-0.305327 0.464098,-0.09587 1.315351,0.195715 1.526943,-0.152663 1.157497,-0.676301 2.000202,-2.834357 2.748559,-4.428471 0.755076,-1.607856 1.165435,-3.31189 2.137904,-4.428167 1.434429,0.635386 2.635281,1.587093 4.122841,2.442926 1.14559,0.659507 3.392492,1.304664 4.12284,2.443231 0.427455,0.667141 0.632327,2.140041 0.916282,3.206855 0.904687,3.398908 1.576108,6.985285 1.984938,10.841879 1.057956,1.435956 2.78795,2.199885 2.290258,5.191485 0.09679,0.514476 -0.196624,1.418552 0.152669,1.679607 0,0.865299 0,1.730597 0,2.595895 0.09679,0.514172 -0.196634,1.418552 0.15266,1.679913 0,0.814309 0,1.628618 0,2.443231 z"
     style="stroke-width:0.305327;fill:#e3f3f3;fill-opacity:1" />
</svg>
