<?xml version="1.0" encoding="UTF-8" standalone="no"?>
<!-- Created with Inkscape (http://www.inkscape.org/) -->

<svg
   width="400"
   height="400"
   viewBox="0 0 105.83333 105.83333"
   version="1.1"
   id="svg201"
   xmlns="http://www.w3.org/2000/svg"
   xmlns:svg="http://www.w3.org/2000/svg">
  <defs
     id="defs198" />
  <path
     id="Gwanak-gu"
     fill-rule="evenodd"
     clip-rule="evenodd"
     fill="#c8c8c8"
     d="m 80.969091,74.607169 c -1.314648,1.318477 -2.79418,2.74766 -4.417396,4.27018 -1.4442,1.354692 -2.880451,3.129544 -4.56491,4.270176 -1.642648,1.112378 -3.73696,2.004216 -5.889863,3.23966 -1.94091,1.113847 -4.025505,3.02355 -5.889863,3.386887 -1.355575,0.263805 -2.979969,0.09715 -4.417692,0.147215 -1.459805,0.05063 -3.009706,0.08513 -4.564614,0.147215 -2.46206,0.09837 -6.861791,0.679846 -9.129524,0.294431 -1.781327,-0.302677 -3.065649,-2.13406 -4.859048,-2.797714 -1.239568,-1.861997 -1.039354,-5.950809 -2.503281,-7.362621 -1.339087,-1.291684 -3.726359,-0.606535 -5.742939,-1.472761 2.421721,-1.645593 -0.265581,-5.066919 -0.588869,-7.50984 -1.157716,-0.658355 -2.52713,-1.104717 -3.975747,-1.472171 -0.53793,-1.520459 -2.463237,-2.913722 -2.944931,-4.564909 -0.463439,-1.587884 -0.480811,-3.935114 -0.736085,-6.037375 -0.23967,-1.975065 -0.493767,-4.040816 -0.736086,-6.037374 -0.754047,-6.20903 -1.148294,-11.7441 -1.178032,-17.081015 -1.19658,-0.668661 -2.528306,-1.201881 -3.828528,-1.766901 -0.612718,-1.203647 -1.413874,-2.218562 -1.914118,-3.534389 3.274404,-0.404847 5.566869,-3.538217 8.098709,-4.269885 3.269398,-0.945429 6.668936,0.05565 9.129524,-2.06163 0.659826,-1.598188 1.213363,-3.302669 1.914411,-4.859343 1.7669,0 3.533801,0 5.300995,0 1.375008,-0.09746 3.140141,0.195211 4.27018,-0.147216 1.963288,0 3.92687,0 5.890157,0 2.40494,0 4.810173,0 7.215407,0 3.197556,1.21984 6.436332,2.398461 9.423957,3.828234 1.201292,4.590819 2.412595,9.171038 3.534095,13.841944 2.612515,2.099611 5.126395,4.297562 7.804274,6.331515 0.787318,0.341837 2.207375,0.05064 3.239661,0.147511 0.544115,-0.09392 1.466577,0.190498 1.7669,-0.147511 2.914018,0.410735 4.149751,-1.641178 5.889861,-1.914119 -0.467564,4.013435 0.53204,6.083897 1.767195,8.540656 2.214439,4.404736 4.531046,9.514348 7.068193,12.810835 -1.100593,0.273824 -2.407291,0.341544 -3.386586,0.736085 -3.744325,3.620069 -7.425342,7.301382 -11.045407,11.04423 z"
     style="stroke-width:0.294434;fill:#d0eeee;fill-opacity:1" />
</svg>
