<?xml version="1.0" encoding="UTF-8" standalone="no"?>
<!-- Created with Inkscape (http://www.inkscape.org/) -->

<svg
   width="400"
   height="400"
   viewBox="0 0 105.83333 105.83333"
   version="1.1"
   id="svg201"
   xmlns="http://www.w3.org/2000/svg"
   xmlns:svg="http://www.w3.org/2000/svg">
  <defs
     id="defs198" />
  <g
     id="layer1">
    <path
       id="Jongno-gu"
       fill-rule="evenodd"
       clip-rule="evenodd"
       fill="#c8c8c8"
       d="m 48.154121,85.75478 c -3.630888,2.316287 -7.853398,4.040841 -12.644372,5.196592 -1.707791,-1.532735 -3.527626,-2.953048 -5.057643,-4.663493 -0.432469,-0.544302 -0.920294,-1.03265 -1.464007,-1.465588 -1.196551,-1.243671 -2.425294,-3.407561 -2.395752,-5.32954 0.01571,-1.024664 0.662677,-2.519033 1.064806,-3.864209 0.800002,-2.677294 1.635134,-5.034878 2.395756,-7.594681 0.396003,-1.33238 1.013973,-2.819824 1.064802,-3.99715 0.07559,-1.750405 -0.543978,-3.61697 -0.931736,-5.196327 -0.384301,-1.565774 -0.868138,-3.06441 -1.330947,-4.796692 -1.44645,-0.728406 -3.152643,-1.19651 -4.392305,-2.131927 0,-0.177701 0,-0.35514 0,-0.532846 0.306857,-0.359138 0.0471,-1.284966 0.13307,-1.865232 0,-0.976973 0,-1.954217 0,-2.931194 0,-0.888255 0,-1.776513 0,-2.664768 0.30659,-0.359138 0.0471,-1.28523 0.133071,-1.865237 0,-0.97724 0,-1.954217 0,-2.931456 0,-0.88826 0,-1.776516 0,-2.66477 0.306587,-0.359143 0.0471,-1.285228 0.13307,-1.865499 0,-0.976973 0,-1.954217 0,-2.931194 0.241656,-3.372129 0.191086,-6.040093 1.197877,-8.261004 0.856154,-1.888146 3.152375,-3.127279 4.392302,-4.929898 0.890221,-1.29429 1.197345,-2.569396 2.12962,-3.863949 3.240201,-0.309317 5.939082,-1.160543 9.18381,-1.465595 1.131608,1.265512 2.657097,2.136716 4.125895,3.064407 1.847246,4.465793 2.266419,9.144457 3.593899,13.857231 1.343187,4.770579 4.454046,8.936377 4.525372,14.789715 -0.76301,1.545787 -1.406526,3.211202 -2.129617,4.796687 -1.402008,0.50674 -2.799216,1.017478 -4.12617,1.598813 -0.212109,1.792764 -0.759548,3.938539 -0.532271,5.729445 2.620372,2.357579 7.305156,1.824198 11.313426,2.931189 2.042325,0.56429 3.561687,1.69845 5.323784,2.131922 2.970607,5.908745 5.164625,12.595451 9.316871,17.321537 3.506602,0.265096 7.111927,0.430813 10.515021,0.799274 0,0.310915 0,0.62183 0,0.932756 -0.308728,0.623689 -0.0459,1.819405 -0.133031,2.664765 0,1.154683 0,2.309365 0,3.464305 -1.15343,0 -2.307394,0 -3.460835,0 -0.491808,0.08503 -1.325872,-0.172637 -1.597335,0.133216 -0.842587,0 -1.685707,0 -2.528807,0 -0.491829,0.08502 -1.325359,-0.172381 -1.596822,0.133205 -0.798945,0 -1.597346,0 -2.395756,0 -0.535995,0.08554 -1.415313,-0.173171 -1.730407,0.133216 -3.38765,0.250699 -6.158111,1.119235 -9.449954,1.465588 -2.218503,0 -4.437013,0 -6.654982,0 -1.319765,-1.03265 -2.205997,-2.499583 -3.726964,-3.33109 -0.448172,-0.221937 -1.814778,-0.221937 -2.262686,-4.01e-4 z"
       style="stroke-width:0.266279;fill:#b2dde0;fill-opacity:1;stroke:#ffffff;stroke-opacity:1" />
  </g>
</svg>
