<?xml version="1.0" encoding="UTF-8" standalone="no"?>
<!-- Created with Inkscape (http://www.inkscape.org/) -->

<svg
   width="400"
   height="400"
   viewBox="0 0 105.83333 105.83333"
   version="1.1"
   id="svg201"
   xmlns="http://www.w3.org/2000/svg"
   xmlns:svg="http://www.w3.org/2000/svg">
  <defs
     id="defs198" />
  <g
     id="layer1">
    <path
       id="Jung-gu"
       fill-rule="evenodd"
       clip-rule="evenodd"
       fill="#c8c8c8"
       d="m 92.396247,48.619962 c -1.51041,2.944706 -2.80444,6.106813 -5.30336,8.061169 -1.12988,0.966753 -2.17689,2.015287 -3.1426,3.145987 -0.15869,0.03779 -0.19561,0.197375 -0.39273,0.196573 -0.90286,0.865322 -1.97736,1.560402 -2.5535,2.752832 -1.58857,4.50433 -3.78547,8.40125 -5.69529,12.58397 -3.10962,-1.21327 -5.13215,-3.51397 -8.44596,-4.52242 -0.40058,-0.45094 -1.6306,-0.0711 -2.35713,-0.19696 -1.1782,0 -2.35638,0 -3.53533,0 -0.40058,-0.45055 -1.6306,-0.0708 -2.35635,-0.19657 -7.00386,1.04735 -7.82703,-4.0927 -11.58856,-6.29159 -0.91975,-0.45566 -2.6823,-0.068 -3.92804,-0.19696 -0.92053,0.12738 -2.35163,-0.25672 -2.94623,0.19696 -1.30935,0 -2.61867,0 -3.92804,0 -1.05092,0.12778 -2.61514,-0.2583 -3.33894,0.19657 -5.3124,0.44977 -10.72377,0.79968 -15.90933,1.37643 -1.18602,-5.2352 -2.86255,-9.980127 -4.71348,-14.550118 3.60679,-2.877466 7.65815,-5.310282 9.82011,-9.634153 5.04338,-1.290717 9.67635,-2.482358 13.9453,-4.718995 2.60337,-1.364228 3.58204,-3.24389 7.65971,-2.75244 1.55481,1.720421 3.19167,3.35908 4.91063,4.915559 9.49769,1.245108 16.61192,-1.586362 24.94358,-2.162725 0.72575,-0.125415 1.95656,0.254772 2.35713,-0.196573 1.17818,0 2.35636,0 3.53533,0 0.79017,-0.126194 2.08851,0.255554 2.5527,-0.196573 1.17898,0 2.35715,0 3.53611,0 0.79017,-0.125804 2.08773,0.255554 2.55272,-0.196573 1.17895,0 2.35713,0 3.5353,0 0.32754,0 0.65508,0 0.98262,0 0,1.114185 0,2.228376 0,3.342553 0,1.179856 0,2.359704 0,3.539148 -0.45085,0.401013 -0.0716,1.633148 -0.1963,2.35969 0,1.047748 0,2.096282 0,3.145204 z"
       style="stroke-width:0.392937;fill:#d5eef2;fill-opacity:1;stroke:#ffffff;stroke-opacity:1" />
  </g>
</svg>
