<?xml version="1.0" encoding="UTF-8" standalone="no"?>
<!-- Created with Inkscape (http://www.inkscape.org/) -->

<svg
   width="400"
   height="400"
   viewBox="0 0 105.83333 105.83333"
   version="1.1"
   id="svg201"
   xmlns="http://www.w3.org/2000/svg"
   xmlns:svg="http://www.w3.org/2000/svg">
  <defs
     id="defs198" />
  <g
     id="layer1">
    <path
       id="Mapo-gu"
       fill-rule="evenodd"
       clip-rule="evenodd"
       fill="#c8c8c8"
       d="m 33.850878,21.427685 c 1.548701,1.413068 1.536546,4.38914 4.674138,4.211369 1.394479,3.135836 4.110781,4.499781 6.777777,6.5512 1.719031,1.322308 3.590887,2.519008 5.141684,3.860495 2.960944,2.561583 5.199871,6.060922 7.829482,8.422742 1.306164,1.173542 2.927294,2.093053 4.206813,3.392441 0.535553,0.633669 1.119704,1.218684 1.752923,1.754583 0.117064,-2.35e-4 0.139029,0.09473 0.23366,0.117186 0.574333,0.672501 1.197742,1.29658 1.86975,1.871537 0.535547,0.633904 1.119696,1.218684 1.75268,1.754813 0.117064,-2.3e-4 0.139029,0.09473 0.23366,0.116955 0.535551,0.633905 1.1197,1.218686 1.752687,1.754818 0.514517,0.537999 0.927161,1.177514 1.635852,1.520666 3.072869,0.392739 7.745367,0.802553 11.218252,1.170034 1.325787,0.140346 2.792008,0.557412 3.739265,0.350866 1.504537,-0.327943 2.174905,-2.252813 3.739494,-2.456555 0.36918,1.385702 1.166664,2.669416 1.635851,4.094415 0.377595,1.145941 1.193303,3.60834 1.168535,4.679197 -0.02476,1.077634 -1.164326,4.505165 -1.519258,5.381403 -1.175777,2.90379 -3.117021,5.075207 -4.908025,7.252936 -2.409742,2.930463 -5.330026,5.713793 -7.946313,7.954678 -0.679714,-0.575193 -1.176011,-1.31576 -1.869511,-1.871538 -0.702385,-0.56256 -1.401965,-1.089332 -2.103407,-1.637858 -1.364811,-1.067105 -2.723081,-2.285094 -4.206821,-3.158521 -4.658946,-2.7431 -9.677966,-4.55873 -14.723854,-6.43401 -2.362534,-0.878109 -4.800545,-2.182407 -7.245098,-3.392673 -2.367676,-1.172138 -5.054065,-2.157382 -7.128263,-3.509396 -1.566458,-1.021265 -3.109784,-2.737249 -4.674138,-4.094653 -3.980397,-3.45255 -7.846542,-6.686865 -11.685574,-10.177547 -0.768274,-0.698233 -1.853156,-1.45728 -2.337067,-2.105451 -0.911035,-1.219623 -1.148674,-2.935142 -1.869747,-4.211371 -0.65635,-1.161378 -1.832131,-2.373745 -2.80439,-3.509392 -1.598467,-1.86639 -2.867474,-3.786589 -5.024857,-4.796389 0,-0.03906 0,-0.07789 0,-0.116955 1.935405,-0.639283 3.851653,-3.546354 5.842669,-3.977453 2.135888,-0.462446 4.360564,0.188764 6.894606,-0.233916 0.811737,-0.76583 1.747309,-1.662182 2.687559,-2.690703 0.715702,-0.782669 2.192434,-2.060535 2.453898,-2.924608 0.165429,-0.546891 -0.03692,-1.150385 0.116832,-1.637628 0.459611,-1.455641 1.898725,-2.009545 2.68826,-3.275714 z"
       style="stroke-width:0.233786;fill:#d1edee;fill-opacity:1;stroke:#ffffff;stroke-opacity:1" />
  </g>
</svg>
