<?xml version="1.0" encoding="UTF-8" standalone="no"?>
<!-- Created with Inkscape (http://www.inkscape.org/) -->

<svg
   width="400"
   height="400"
   viewBox="0 0 105.83333 105.83333"
   version="1.1"
   id="svg201"
   xmlns="http://www.w3.org/2000/svg"
   xmlns:svg="http://www.w3.org/2000/svg">
  <defs
     id="defs198" />
  <g
     id="layer1">
    <path
       id="Nowon-gu"
       fill-rule="evenodd"
       clip-rule="evenodd"
       fill="#c8c8c8"
       d="m 63.412168,50.424651 c -0.115875,1.03243 -0.832414,1.277281 -1.023361,2.276036 -0.176162,0.921611 0.0596,4.211873 0.340974,5.234973 0.201169,0.730008 1.544135,3.332138 2.046259,3.641843 1.356373,0.835598 3.649048,0.319264 5.343197,0.682678 1.843286,0.395498 3.393778,1.266819 5.002235,1.706912 0.622844,2.554801 0.05363,4.725475 0.681936,6.94212 0.486222,1.716927 2.226534,2.863363 1.591639,5.462762 -0.722844,1.021735 -1.205881,2.28309 -2.046259,3.186498 -1.044732,0.378428 -1.988534,0.116512 -2.842305,0.569125 -0.708535,0.3757 -1.813952,2.13996 -1.932614,3.186499 -0.170029,1.507571 0.517136,2.86587 1.364323,3.755621 -0.162065,0.292858 -0.367109,0.542953 -0.340961,1.024231 -1.337286,0.330419 -2.316992,1.01902 -4.20619,0.796689 -0.382798,0.07194 -1.056093,-0.146774 -1.250678,0.11378 -0.606464,0 -1.212478,0 -1.818942,0 -0.382799,0.07194 -1.055868,-0.146782 -1.250678,0.113781 -0.606014,0 -1.212478,0 -1.818943,0 -0.382798,0.07194 -1.055868,-0.146783 -1.250227,0.113771 -2.775714,0.04479 -4.958354,1.679376 -7.048495,2.73138 -1.937379,0.975086 -3.759965,1.711697 -5.456851,2.73138 -2.630457,-0.666975 -5.387981,-1.20674 -7.957743,-1.9347 -3.891813,-5.132342 -7.924328,-10.730963 -11.026913,-16.274277 1.510486,-0.118782 3.203737,-0.05485 4.547151,-0.341338 0.717395,-2.145645 0.368017,-4.636271 0.79559,-6.714559 0.320967,-1.559684 1.351371,-3.172622 1.705296,-4.893641 0.509182,-2.473559 0.41735,-5.579044 0.682395,-8.421705 0.121157,-1.30459 0.327553,-2.710441 0.454623,-4.096956 0.12206,-1.33713 0.393705,-2.899775 0.227312,-3.983181 -0.237089,-1.54125 -1.200887,-3.189228 -1.818953,-4.779855 -0.588283,-1.513491 -1.64392,-3.309608 -1.818952,-4.779863 -0.100239,-0.844697 0.222765,-1.916724 0.34097,-2.95894 0.109571,-0.967122 0.04138,-2.054394 0.227309,-2.95894 0.486681,-2.364784 2.047177,-4.857912 2.615003,-7.511242 0.493264,-2.304027 0.0932,-4.940515 0.681933,-6.942119 1.308862,-2.086023 3.57835,-1.94653 6.025142,-3.300277 0.804908,-0.44533 2.041033,-1.398118 2.728648,-2.048479 0.70945,-0.671524 1.283178,-1.912398 1.93261,-2.162257 0.734674,-0.283081 2.34109,-0.39345 3.18283,-0.227559 0.698753,0.137672 1.48276,1.09888 2.273575,1.707141 1.799405,1.383783 2.979377,2.223928 4.661261,3.527837 0.77741,0.603029 1.563235,1.515991 2.273575,1.820918 1.916699,0.822853 3.542438,0.382757 5.797829,1.2518 0.978114,3.512589 -0.456451,4.449901 -1.818955,6.486776 -0.733078,1.096147 -1.913063,2.426223 -1.932601,3.527834 -0.01765,1.003306 1.234299,3.0709 1.705284,3.75562 0.760592,1.10548 2.808896,2.572091 3.183279,3.869401 0.517588,1.796346 -0.105654,3.432488 0.340975,5.91788 -0.748541,1.079989 -3.561525,1.548533 -4.092532,2.731379 -0.411202,0.915237 0.06517,2.141779 -0.113618,3.641613 0.07366,0.571855 -0.149111,1.439766 0.113618,1.821607 z"
       style="stroke-width:0.227435" />
    <path
       style="fill:#c8eaec;stroke-width:0.96189;fill-opacity:1"
       d="m 163.74478,353.79983 -13.72386,-3.34911 -5.56997,-7.37561 c -9.687,-12.82728 -22.85618,-32.00965 -29.49691,-42.96553 l -6.41338,-10.58079 7.72746,-0.48094 c 4.2501,-0.26452 8.21356,-0.96884 8.80768,-1.56517 0.59412,-0.59632 1.63574,-6.87265 2.31472,-13.9474 0.93307,-9.7224 1.8643,-14.38978 3.8139,-19.11546 3.62621,-8.78967 4.32481,-12.5577 5.40417,-29.14851 0.52304,-8.03961 1.62584,-20.59969 2.45067,-27.91129 0.82483,-7.31162 1.21558,-14.67007 0.86834,-16.35213 -0.34724,-1.68207 -3.48922,-9.76748 -6.98217,-17.96759 -6.94259,-16.29854 -7.00324,-16.66884 -5.29152,-32.31086 0.82854,-7.57133 2.01979,-12.1555 5.41553,-20.8401 4.86202,-12.434606 6.39369,-19.23706 6.42751,-28.545849 0.046,-12.665693 2.30935,-16.577476 11.51973,-19.909881 12.22293,-4.422373 16.73596,-7.167852 23.72175,-14.430994 l 6.9901,-7.267623 5.61275,-0.12903 c 4.25477,-0.09781 6.21459,0.331647 8.10026,1.775022 1.36813,1.047228 7.97171,6.232554 14.67464,11.522948 6.70292,5.290393 13.48835,10.567664 15.07873,11.727269 2.78007,2.027056 7.70739,3.332434 17.43027,4.617752 6.02768,0.79683 7.46614,2.395871 7.46614,8.299639 0,5.451759 -1.23882,8.213775 -7.68114,17.125537 -6.31514,8.73581 -7.98895,12.27292 -7.2522,15.32537 1.21877,5.04957 5.68056,12.28109 11.2752,18.27447 3.13898,3.36268 6.08717,7.11331 6.55155,8.33473 1.02813,2.7042 1.4558,21.95605 0.52132,23.46807 -0.36806,0.59554 -3.22596,2.37345 -6.35089,3.95091 -8.12798,4.10299 -8.71489,5.35079 -8.5398,18.1559 0.094,6.873 -0.25041,11.18047 -0.96249,12.03847 -2.34588,2.82662 -2.9043,7.61355 -1.95551,16.76338 0.77189,7.44385 1.5454,10.25654 4.12405,14.99616 4.07671,7.49306 7.20515,9.18943 17.00314,9.21982 5.72783,0.0178 9.17939,0.71164 16.75268,3.36787 5.24617,1.84003 9.75037,3.55738 10.00932,3.81633 0.25895,0.25894 0.77842,5.99863 1.15439,12.75486 0.6428,11.55136 0.89203,12.69798 4.17855,19.22414 4.60211,9.13857 4.53893,12.1155 -0.42386,19.97354 -3.78661,5.99568 -4.07982,6.22639 -8.69047,6.838 -5.63951,0.74811 -8.86955,3.03693 -11.46478,8.12399 -2.61039,5.11679 -2.42433,11.00795 0.50974,16.14028 4.60435,8.05398 1.20206,9.37887 -27.41581,10.67603 -12.64427,0.57312 -21.09913,1.39211 -23.5663,2.28278 -2.11615,0.76394 -11.6852,5.33859 -21.26454,10.16588 -9.57934,4.8273 -17.8035,8.73347 -18.27591,8.68036 -0.4724,-0.0531 -7.03465,-1.60363 -14.58278,-3.44564 z"
       id="path399"
       transform="scale(0.26458333)" />
    <path
       style="fill:#c8eaec;fill-opacity:1;stroke-width:3.77952761;stroke:#ffffff;stroke-opacity:1;stroke-dasharray:none"
       d="m 162.66313,353.20731 -12.4008,-2.98993 -6.42194,-8.70178 c -8.88382,-12.03764 -21.79315,-30.9485 -28.7114,-42.05931 l -5.79715,-9.31028 6.41407,-0.62641 c 8.33626,-0.81413 9.58298,-1.2021 10.1741,-3.16615 0.27049,-0.89876 1.18142,-7.00397 2.02429,-13.56714 0.90862,-7.07515 2.67796,-15.23893 4.34625,-20.05373 2.84016,-8.19685 3.03297,-9.57304 6.2324,-44.48346 2.49024,-27.17223 2.61531,-26.0155 -4.83402,-44.71097 l -6.50887,-16.33523 0.58466,-10.90964 c 0.5303,-9.89514 1.08414,-12.389 5.95587,-26.81797 4.80882,-14.242648 5.45514,-17.116297 6.17287,-27.445432 1.09179,-15.712476 0.61605,-15.150718 20.66097,-24.396646 5.90648,-2.724428 9.20649,-5.104554 14.71536,-10.613416 7.06069,-7.060691 7.13094,-7.101394 12.25695,-7.101394 5.14739,0 5.1812,0.01997 21.3555,12.616701 8.90997,6.939186 17.53228,13.190224 19.16067,13.891195 1.6284,0.700971 6.57516,1.898689 10.99278,2.661594 9.72381,1.679258 10.89635,2.821587 10.32847,10.062431 -0.34283,4.371257 -1.29397,6.396059 -6.77756,14.428345 -9.00312,13.187612 -9.28513,14.270262 -5.64021,21.652732 1.62026,3.28167 5.38225,8.78021 8.35998,12.21896 7.4362,8.58749 8.15156,10.56121 8.15156,22.49073 v 10.04795 l -6.342,3.54664 c -7.99243,4.46964 -9.04823,6.71469 -9.04823,19.24021 0,6.64227 -0.43844,10.06446 -1.56969,12.25206 -2.52647,4.88566 -1.38937,22.14733 1.90212,28.87488 4.37174,8.93552 6.57206,10.33 18.5837,11.77767 9.55196,1.15122 23.55931,5.04039 25.63712,7.1182 0.47235,0.47235 1.25421,6.16591 1.73746,12.65234 0.77103,10.34923 1.28867,12.70169 4.22687,19.20914 4.00666,8.87387 4.10217,10.74957 0.85996,16.88958 -3.61752,6.85078 -5.7434,8.75853 -10.56584,9.4817 -10.73888,1.61039 -15.69003,13.78483 -10.24755,25.19782 1.90152,3.98752 0.95427,6.11635 -3.22389,7.24535 -1.54664,0.41792 -12.12332,1.39689 -23.50373,2.17548 -11.9682,0.81881 -22.30911,1.99926 -24.52819,2.79999 -2.11009,0.76139 -11.41141,5.10317 -20.6696,9.64839 -9.25819,4.54521 -17.9152,8.22683 -19.23779,8.18137 -1.3226,-0.0455 -7.98509,-1.42812 -14.80552,-3.07257 z"
       id="path6229"
       transform="scale(0.26458333)" />
  </g>
</svg>
