<?xml version="1.0" encoding="UTF-8" standalone="no"?>
<!-- Created with Inkscape (http://www.inkscape.org/) -->

<svg
   width="400"
   height="400"
   viewBox="0 0 105.83333 105.83333"
   version="1.1"
   id="svg201"
   xmlns="http://www.w3.org/2000/svg"
   xmlns:svg="http://www.w3.org/2000/svg">
  <defs
     id="defs198" />
  <path
     id="Seocho-gu"
     fill-rule="evenodd"
     clip-rule="evenodd"
     fill="#c8c8c8"
     d="m 36.701406,8.4343969 c 1.020822,2.6060931 3.238513,4.9922341 4.117484,7.9177031 0.376793,1.254707 0.503445,2.839557 0.738809,4.222817 0.244861,1.440676 0.129819,3.150067 0.633264,4.32815 0.621232,1.453552 2.831535,2.340756 3.272709,3.694886 0.443707,1.362573 0.187235,3.369176 0.316632,5.06738 0.269138,3.52897 0.429565,6.881893 2.322814,8.656722 0.448562,0.536796 0.94082,1.029476 1.477616,1.477828 0.484025,0.572048 1.011745,1.099769 1.583583,1.583582 1.087526,0.918445 2.776652,1.235077 4.011517,2.005759 1.011745,1.099769 2.067609,2.155421 3.167166,3.166955 1.308536,5.272347 1.812403,11.348939 4.750749,14.991053 2.655066,-0.795381 5.822653,-1.98845 9.395529,-2.217057 0.526876,-0.683715 1.023778,-1.347587 1.583584,-2.21706 0.448562,-0.696379 0.733108,-1.800158 1.478038,-2.322391 1.670973,-1.171327 6.430799,-2.188561 8.973355,-1.161406 0.789892,0.319376 1.198136,1.202991 1.900215,1.478039 0.247395,0.17457 0.228397,0.615954 0.211087,1.055862 0.06606,0.320855 -0.135307,0.909157 0.105545,1.055441 0,0.457638 0,0.915066 0,1.372494 0.06839,0.529832 -0.138474,1.33471 0.105543,1.689127 0,0.140585 0,0.281591 0,0.422176 0.753163,1.147264 1.706437,2.093994 2.427936,3.272711 2.303815,1.144941 4.138804,2.758075 5.489557,4.856291 -1.15613,0.711789 -3.731194,0.593159 -4.433695,1.688916 -0.535108,0.834221 0.05235,1.849131 -0.105544,2.955867 -0.166548,1.166684 -1.215445,2.227823 -1.161406,3.272709 -1.326689,0.362438 -3.34448,0.03356 -4.117062,0.950108 -0.609833,1.735355 -0.668728,3.409705 -2.216847,4.222816 -0.969316,0.508722 -3.004205,0.750841 -4.328572,1.055653 -1.252597,0.288345 -3.615728,0.470303 -4.222606,1.161195 -0.723609,0.823666 -0.619333,2.816759 -0.844352,4.011519 -0.282014,1.492182 -0.597379,2.709103 -0.950319,3.906182 -1.407535,0 -2.815071,0 -4.222606,0 -1.742743,-0.12264 -3.130436,-0.599701 -4.856293,-0.739015 -2.109614,-1.332388 -4.573855,-3.070065 -6.86205,-4.539452 -0.822821,-0.528565 -2.61707,-1.023566 -2.322391,-2.217058 0.175625,-0.390091 0.175625,-1.509913 0,-1.900215 -0.544185,-3.502796 -1.606171,-6.486948 -2.427935,-9.712163 0,-0.387135 0,-0.774271 0,-1.161407 0,-0.351673 0,-0.703767 0,-1.05544 0,-1.23191 0,-2.463398 0,-3.694885 0.244017,-0.389457 0.03673,-1.230222 0.105543,-1.794671 -0.06966,-0.775115 0.139318,-1.828867 -0.105543,-2.428358 0.146284,-1.885016 -1.732823,-1.61229 -3.167167,-1.900214 -1.274759,-0.255628 -2.192571,-0.788837 -3.272708,-0.633265 -0.983249,0.141641 -2.415481,1.443421 -3.483798,2.111303 -1.144097,0.715377 -2.615171,1.347797 -3.483799,2.111304 -1.504424,1.323099 -2.406826,3.400418 -3.589341,4.328571 -0.996125,0.174149 -2.698761,0.174149 -3.694886,0 -1.192648,-1.079293 -0.241696,-3.07112 -0.527719,-4.645204 -0.154939,-0.853852 -1.523423,-2.315002 -2.111303,-2.533479 -0.465872,-0.173303 -1.850399,-0.353994 -2.74499,0 -0.882348,0.348718 -0.872849,1.406058 -1.689127,2.00576 -2.592373,-3.249279 -4.096797,-7.586085 -6.122821,-11.401501 -0.07008,-1.407747 0.140163,-3.09624 -0.105544,-4.328361 -0.992325,-3.212129 -0.86546,-6.212745 -0.316632,-10.029006 0.292779,-2.038056 0.534264,-4.113896 0.949897,-5.700646 0.225441,-0.860184 0.878971,-1.710657 0.844774,-2.533689 -0.04284,-1.022511 -0.890158,-2.020746 -1.266951,-2.850323 -0.468403,-1.030531 -0.782925,-1.907814 -1.26695,-2.850321 -1.494504,-0.229665 -3.150911,-0.297636 -4.856081,-0.316633 -0.32972,-1.148531 -0.617222,-2.338855 -0.844563,-3.589342 4.198542,-0.107232 7.586083,0.26766 10.556937,-0.950318 1.384526,-0.567405 2.819081,-2.28355 4.011517,-3.378254 3.995474,-3.667444 7.855431,-7.486238 11.190201,-11.2957451 z"
     style="stroke-width:0.211088;fill:#b2dde0;fill-opacity:1" />
</svg>
