<?xml version="1.0" encoding="UTF-8" standalone="no"?>
<!-- Created with Inkscape (http://www.inkscape.org/) -->

<svg
   width="400"
   height="400"
   viewBox="0 0 105.83333 105.83333"
   version="1.1"
   id="svg201"
   xmlns="http://www.w3.org/2000/svg"
   xmlns:svg="http://www.w3.org/2000/svg">
  <defs
     id="defs198" />
  <g
     id="layer1">
    <path
       id="Seodaemun-gu"
       fill-rule="evenodd"
       clip-rule="evenodd"
       fill="#c8c8c8"
       d="m 82.978001,72.457745 c 2.053239,2.265886 4.700531,3.937105 6.665443,6.291081 -3.440868,6.151543 -10.684365,8.495979 -15.80645,12.964113 -5.16855,-0.569903 -11.487093,-1.294971 -17.330397,-1.906423 -3.415357,-0.357566 -6.40194,-0.06022 -7.807838,-2.288005 -0.935996,-1.095972 -1.95158,-2.113041 -3.047131,-3.05005 -0.872776,-1.033079 -1.824775,-1.986098 -2.856349,-2.859817 -0.154225,-0.03622 -0.190023,-0.190984 -0.380796,-0.190608 -0.936371,-1.096348 -1.951961,-2.113417 -3.047126,-3.050426 -0.872782,-1.032693 -1.824781,-1.986098 -2.85673,-2.859818 -5.018889,-3.325278 -9.704585,-8.349222 -13.902093,-12.964121 -1.549458,-1.703235 -5.528014,-4.513882 -5.90348,-6.481676 -0.190402,-0.997622 0.644311,-6.356649 1.142393,-7.62569 0.349186,-0.890113 1.122967,-1.397891 1.713961,-1.90642 0.714374,-0.555796 1.349163,-1.191271 1.904362,-1.90642 0,-0.06366 0,-0.126943 0,-0.190602 0.777964,-0.619084 1.475965,-1.318215 2.094756,-2.097026 0.486656,-0.59316 0.803474,-1.35634 2.094758,-1.144 2.095132,0 4.189894,0 6.284656,0 1.208269,-0.125052 2.917276,0.25159 3.808714,-0.190602 2.470227,0.05794 4.794603,-0.03013 7.046249,-0.190602 2.408908,-2.354343 3.9557,-5.572496 5.141881,-9.150895 4.146486,-0.996858 7.513481,-2.772904 11.236146,-4.194055 0.953122,-4.066339 2.460702,-7.577271 4.379911,-10.676486 3.151464,-1.456216 5.135412,-4.540194 10.283767,-3.431635 0,0.190602 0,0.381208 0,0.571816 -0.442104,1.018965 -0.06513,2.857913 -0.190399,4.194048 0,1.461553 0,2.923481 0,4.385034 1.670165,1.695994 4.455693,2.275427 6.665453,3.431632 1.121437,4.279054 2.201754,8.59891 3.047117,13.154723 -1.638562,5.038815 -3.250469,11.051985 -4.951485,16.776966 -0.581853,1.957497 -1.685016,3.925299 -1.713968,5.529037 -0.04373,2.422198 1.654176,4.465087 2.094767,6.863269 0.618789,0.778811 1.316794,1.477559 2.094756,2.097028 0.618789,0.778046 1.31717,1.477183 2.095142,2.096645 z"
       style="stroke-width:0.381001;fill:#dff3f4;fill-opacity:1;stroke:#ffffff;stroke-opacity:1" />
  </g>
</svg>
