<?xml version="1.0" encoding="UTF-8" standalone="no"?>
<!-- Created with Inkscape (http://www.inkscape.org/) -->

<svg
   width="400"
   height="400"
   viewBox="0 0 105.83333 105.83333"
   version="1.1"
   id="svg201"
   xmlns="http://www.w3.org/2000/svg"
   xmlns:svg="http://www.w3.org/2000/svg">
  <defs
     id="defs198" />
  <g
     id="layer1">
    <path
       id="Seongdong-gu"
       fill-rule="evenodd"
       clip-rule="evenodd"
       fill="#c8c8c8"
       d="m 40.543241,20.639539 c 0.85851,0 1.716221,0 2.574742,0 2.105874,-1.2622 1.672264,-5.067036 5.743453,-4.361403 0.274424,0.452311 1.378045,0.07413 1.979958,0.198208 3.732608,-0.03568 7.145657,0.248549 10.694134,0.396412 1.011751,2.886331 1.877777,5.918554 2.772725,8.921828 9.730291,3.410399 19.875984,6.403766 28.91448,10.507504 -1.80532,10.825824 -3.331084,19.632683 -8.120198,27.161093 -1.626329,2.557302 -4.696058,4.523149 -5.544667,7.137143 -0.669617,2.062568 -0.279963,4.372116 -0.593987,6.3443 -0.57537,3.603851 -1.873829,6.706629 -2.574729,10.309289 C 68.019876,82.99161 59.6316,76.643352 48.861436,74.168895 46.639532,73.658699 43.500901,73.736397 40.741241,73.574256 32.667381,73.099754 26.914022,73.942138 19.946953,75.556755 18.392292,69.380933 16.837632,63.205509 15.194261,57.118877 c 2.513753,-4.091844 4.174149,-9.03798 6.535443,-13.283229 1.072743,-0.908197 2.062719,-1.899648 2.970726,-2.973945 1.138474,-0.974399 2.194976,-2.031653 3.16793,-3.172145 2.370405,-2.055039 3.441564,-5.409943 5.149465,-8.128198 0.457768,-0.665588 0.06969,-2.177532 0.197999,-3.17215 0,-1.123455 0,-2.246904 0,-3.370364 0.455389,-0.469358 0.07127,-1.779524 0.198,-2.577121 0,-0.991039 0,-1.98249 0,-2.973547 1.91026,0.796809 2.378321,3.038171 5.149464,2.973547 0.274429,0.451523 1.37805,0.07334 1.979955,0.197814 z"
       style="stroke-width:0.396204;fill:#d0eeee;fill-opacity:1;stroke:#ffffff;stroke-opacity:1" />
  </g>
</svg>
