<?xml version="1.0" encoding="UTF-8" standalone="no"?>
<!-- Created with Inkscape (http://www.inkscape.org/) -->

<svg
   width="400"
   height="400"
   viewBox="0 0 105.83333 105.83333"
   version="1.1"
   id="svg201"
   xmlns="http://www.w3.org/2000/svg"
   xmlns:svg="http://www.w3.org/2000/svg">
  <defs
     id="defs198" />
  <path
     id="Songpa-gu"
     fill-rule="evenodd"
     clip-rule="evenodd"
     fill="#c8c8c8"
     d="m 54.284627,7.2508352 c 0.856151,0.6620793 1.418073,1.6178668 2.081713,2.4719356 1.018223,0.109523 2.085875,0.169617 3.252903,0.130075 1.663133,2.7123132 0.187047,6.8739182 -0.911042,9.7576692 -0.392305,1.030971 -1.278372,2.39155 -1.17067,3.122829 0.221127,1.502361 3.556757,2.586922 4.163424,3.903016 1.131649,2.120995 1.790606,4.71468 3.122309,6.635361 1.559333,0.522379 3.725855,0.437831 5.594765,0.650633 1.507564,1.528115 3.235213,2.836144 6.114543,2.992233 -0.730239,1.640501 -1.701635,2.867623 -2.732085,4.553649 -0.595482,0.973998 -2.654301,3.616072 -2.471936,4.943872 0.152447,1.108755 1.874894,1.312712 2.211786,2.602271 0.385541,1.474524 -0.273416,2.152213 0,4.03309 2.61736,3.801298 8.817751,4.019562 13.400796,5.854914 0.566085,0.301252 1.689929,0.045 2.471937,0.130074 0.302293,0.911823 0.04423,2.384526 0.130074,3.512793 -3.093432,0.924049 -4.627271,2.251589 -5.464169,5.334355 -0.601205,2.212047 -0.283563,5.048452 -1.041117,7.155659 -0.591319,1.646223 -1.915998,2.499772 -2.602011,3.773201 -1.513027,0.701102 -3.26513,0.361088 -4.293499,1.301005 -0.544752,0.498186 -1.421714,3.186566 -1.821564,4.553649 -0.291106,0.997152 0.310358,2.296336 0.130075,3.122568 -0.211761,0.972698 -1.315574,1.494817 -1.821043,2.081713 -0.652974,0.08428 -1.645182,-0.170658 -2.081713,0.130075 -1.928225,0.208379 -3.512532,-0.362127 -4.683722,0.260149 -0.955788,0.50755 -1.432901,2.51486 -1.951638,3.642866 -0.686534,1.490914 -1.216457,2.770847 -1.821564,3.772942 C 60.550577,93.889044 58.552632,90.345815 56.36634,87.135055 55.619972,86.038527 54.528127,84.983883 54.154552,83.882412 53.166246,80.96432 53.576242,77.620104 52.463584,74.384891 50.001794,72.509738 47.11466,71.059666 44.657033,69.18061 44.275394,68.044279 43.998075,66.803889 43.616436,65.667818 42.88984,64.833 42.109393,64.052293 41.274575,63.325956 c -3.40431,-1.0471 -7.648381,-0.89231 -10.798786,-1.951638 -1.067131,-0.358745 -2.239103,-1.246373 -3.382978,-1.821563 -2.609554,-1.311931 -4.213634,-2.158456 -6.245137,-3.772941 -0.888669,-0.706564 -2.085355,-1.522912 -2.60201,-2.211786 -1.075716,-1.434722 -1.450592,-3.31508 -2.471936,-5.074207 -0.08377,-0.566605 0.169616,-1.470363 -0.130075,-1.821304 0,-0.737262 0,-1.474524 0,-2.211786 0,-0.867598 0,-1.734934 0,-2.602271 -0.08273,-0.480756 0.168576,-1.295803 -0.130074,-1.561155 0,-0.780707 0,-1.561154 0,-2.341861 0,-0.867337 0,-1.734673 0,-2.602271 -0.08273,-0.480755 0.168576,-1.295802 -0.130075,-1.560894 0,-0.216964 0,-0.433929 0,-0.650893 0.992209,0.178983 1.889202,0.45266 3.122309,0.390484 0.607187,0 1.214375,0 1.821563,0 0.867337,0 1.734674,0 2.602011,0 0.395686,-0.08142 1.120981,0.166496 1.301264,-0.130074 1.170671,0 2.341863,0 3.513053,0 0.438091,-0.08246 1.208392,0.167796 1.43082,-0.130075 2.236241,-0.553077 4.784921,-0.675087 7.025584,-1.561154 1.98884,-0.786431 2.921213,-2.299457 4.163425,-3.903276 2.170684,-2.802065 4.272688,-5.497209 6.375212,-8.196776 1.43134,-1.837432 3.139478,-3.573407 4.163425,-5.46417 1.27369,-2.352527 2.220371,-4.862185 3.382457,-6.8955098 z"
     style="stroke-width:0.26008541;stroke:#ffffff;stroke-opacity:1;stroke-dasharray:none;paint-order:stroke fill markers;fill:#c8eaec;fill-opacity:1" />
</svg>
