<?xml version="1.0" encoding="UTF-8" standalone="no"?>
<!-- Created with Inkscape (http://www.inkscape.org/) -->

<svg
   width="400"
   height="400"
   viewBox="0 0 105.83333 105.83333"
   version="1.1"
   id="svg201"
   xmlns="http://www.w3.org/2000/svg"
   xmlns:svg="http://www.w3.org/2000/svg">
  <defs
     id="defs198" />
  <path
     id="Yangcheon-gu"
     fill-rule="evenodd"
     clip-rule="evenodd"
     fill="#c8c8c8"
     d="m 15.001746,27.841807 c 1.063299,-1.906358 1.847223,-4.092851 3.222878,-5.687231 2.511738,0.260802 4.519686,-0.995446 6.445755,-0.568989 0.88324,0.19636 2.741077,1.918109 3.222879,2.654268 0.752839,1.151624 1.175127,3.037512 1.895744,4.739928 1.855941,4.382463 4.475713,10.079171 5.877147,14.028731 2.504535,2.520077 5.694055,3.611807 10.237244,4.549634 1.985583,0.410157 4.03561,1.094762 5.68723,0.94844 3.836597,-0.340027 7.101174,-3.131142 10.237245,-3.981403 0.825241,-3.579585 4.80854,-7.007162 5.68723,-10.237622 1.015537,-3.731595 -0.211522,-8.23536 0.758526,-11.563998 0.614098,-2.109163 2.133422,-3.197102 3.222878,-4.929466 2.422276,0.168688 4.104602,1.077326 6.066304,1.706586 2.092481,0.56103 5.488596,-0.180818 7.582974,0.379074 2.497333,4.599291 3.80286,9.8703 6.25622,14.407804 0.650868,1.204315 2.046616,2.205446 2.464354,3.60233 0.653143,2.183839 -0.05421,4.380568 0.56861,6.635292 -3.333948,3.175115 -7.169028,5.849096 -10.42716,9.099647 0,1.896123 0,3.791866 0,5.687609 -0.440861,1.581114 -0.06406,3.980267 -0.189536,5.877148 0,3.159573 0,6.319146 0,9.479097 -0.854431,4.70657 -3.357829,7.763414 -4.929085,11.753536 -0.28696,0.471566 -1.633047,-0.116379 -1.895746,0.379452 -5.402167,0.203562 -11.333142,1.086801 -14.408182,-1.706208 -1.003406,-2.724777 -1.840019,-5.616724 -2.843426,-8.341878 -1.644799,-0.313872 -3.487471,-0.430247 -5.497694,-0.379074 -0.324488,-0.434039 -1.446923,-0.06974 -2.085281,-0.189535 -0.948062,0 -1.895743,0 -2.843805,0 -4.140234,3.316508 -7.515499,7.398745 -12.132988,10.237243 -1.579596,0 -3.159573,0 -4.739169,0 -0.888548,0.122813 -2.270269,-0.247535 -2.843806,0.189536 -0.758145,0 -1.51667,0 -2.274817,0 -0.66224,-2.055332 -1.374518,-4.059871 -2.274816,-5.876767 -3.596264,-0.700906 -7.288814,-1.305149 -10.995769,-1.895745 0.743362,-2.863137 4.288452,-7.171301 4.73955,-10.237243 0.663376,-4.504524 0,-10.550737 0,-16.303927 0,-5.766837 0.812731,-12.055656 0,-16.493464 -0.600452,-3.281633 -3.298314,-5.710734 -3.791488,-7.962805 z"
     style="stroke-width:0.379073;fill:#d0eef0;fill-opacity:1" />
</svg>
