<?xml version="1.0" encoding="UTF-8" standalone="no"?>
<!-- Created with Inkscape (http://www.inkscape.org/) -->

<svg
   width="400"
   height="400"
   viewBox="0 0 105.83333 105.83333"
   version="1.1"
   id="svg201"
   xmlns="http://www.w3.org/2000/svg"
   xmlns:svg="http://www.w3.org/2000/svg">
  <defs
     id="defs198" />
  <path
     id="Yeongdeungpo-gu_1_"
     fill-rule="evenodd"
     clip-rule="evenodd"
     fill="#c8c8c8"
     d="m 25.135831,40.078084 c 1.165196,-0.951446 2.4584,-2.138672 4.019834,-3.424136 1.056535,-0.869878 3.526843,-2.27234 3.870984,-3.573286 0.46054,-1.741242 -0.582894,-3.479806 -0.2977,-5.806625 -2.121702,-2.626898 -3.122866,-5.618478 -4.615232,-9.081613 -1.486114,-3.448551 -3.263083,-6.054014 -3.126734,-10.719855 3.746842,2.598915 6.516339,6.477341 10.421855,9.081912 1.879377,1.253612 4.265139,2.052339 6.402024,3.126438 6.268655,3.15204 12.705508,6.695555 19.801767,8.784512 1.235749,5.960237 1.456345,12.058012 3.722134,16.674733 1.610851,3.28273 4.798317,4.689953 7.593119,6.700021 0,0.04942 0,0.09914 0,0.148849 -2.957048,4.636071 -5.811388,9.37455 -8.039668,14.739688 0.02977,6.282645 -1.227414,11.278933 -3.275288,15.483935 -2.765923,0.760027 -6.715798,0.761812 -9.081912,1.935344 -0.878809,0.435832 -3.985896,3.21932 -4.317533,4.019833 -0.908282,2.190175 -0.165223,5.129359 -1.191095,7.741968 -0.748715,0.04526 -1.176209,0.412017 -1.786493,0.595705 -2.065438,-1.259276 -4.017751,-2.632555 -5.955177,-4.019838 0,-0.34772 0,-0.694834 0,-1.042249 -0.09436,-0.501621 0.191718,-1.383107 -0.14885,-1.637641 0,-0.794264 0,-1.588228 0,-2.382193 -0.09408,-0.501326 0.192016,-1.383111 -0.14885,-1.637941 0,-0.843679 0,-1.687361 0,-2.53104 -0.09407,-0.501325 0.192017,-1.382813 -0.14885,-1.637644 0.758241,-3.259509 -1.720702,-3.705166 -2.382189,-5.657775 -0.704058,-2.079131 -0.601054,-4.634583 -1.191095,-6.997423 -0.581703,-2.328902 -1.128579,-4.55718 -1.637643,-6.699722 -2.813854,-1.751961 -5.800671,-3.330957 -8.635364,-5.062079 0,-2.531038 0,-5.06208 0,-7.593118 0,-2.183624 0,-4.367248 0,-6.550873 0.34414,-0.696914 0.05032,-2.032989 0.147956,-2.977887 z m 63.126542,8.188815 C 82.053555,41.225417 75.661355,34.366724 66.227562,30.549624 c 0.615644,4.595583 1.352746,9.069111 2.82874,12.804046 1.695993,1.521839 3.870091,4.375585 6.252876,5.062079 3.027602,0.871962 6.32611,0.212856 10.124158,0.297997 0.517104,-0.505494 3.031174,0.291746 2.829037,-0.446847 z"
     style="stroke-width:0.2977;fill:#b2dde0;fill-opacity:1" />
</svg>
