<?xml version="1.0" encoding="UTF-8" standalone="no"?>
<!-- Created with Inkscape (http://www.inkscape.org/) -->

<svg
   width="400"
   height="400"
   viewBox="0 0 105.83333 105.83333"
   version="1.1"
   id="svg201"
   xmlns="http://www.w3.org/2000/svg"
   xmlns:svg="http://www.w3.org/2000/svg">
  <defs
     id="defs198" />
  <g
     id="layer1">
    <path
       id="Yongsan-gu"
       fill-rule="evenodd"
       clip-rule="evenodd"
       fill="#c8c8c8"
       d="m 63.16291,23.223615 c 3.069093,2.060109 4.156151,6.083133 10.100187,5.144594 0.361402,0.406484 1.471831,0.06385 2.126613,0.177348 1.063666,0 2.126614,0 3.189571,0 0.361402,0.406487 1.471841,0.0642 2.126613,0.177349 2.883799,1.133979 5.2145,2.821654 7.619259,4.43448 1.051262,5.572708 3.069811,11.116699 3.898909,16.320167 -6.244855,3.848156 -11.770091,9.991949 -17.188668,15.965476 -4.10584,4.52599 -8.232229,8.107769 -12.581126,12.240039 -2.62975,2.498876 -3.848246,4.229461 -7.797126,4.612185 -4.565379,0.442307 -12.904262,0.591994 -16.302167,-0.709755 -2.054336,-0.786734 -3.83266,-3.398047 -5.315827,-5.144237 -1.695771,-1.996262 -3.338038,-3.766221 -4.784366,-5.676645 -0.71785,-1.232588 -1.82828,-2.072525 -2.834901,-3.015675 -0.774883,-0.229138 -1.113966,-0.894912 -1.594783,-1.41916 -0.693749,-0.842767 -1.46156,-1.611404 -2.303417,-2.305912 -0.634933,-0.783887 -1.34358,-1.493302 -2.126263,-2.128569 -1.944143,-1.897647 -3.673217,-4.009896 -5.492996,-6.031341 9.162665,-8.861866 18.990036,-17.059373 22.149838,-31.930591 4.896324,-0.242614 9.389076,-0.889235 14.353065,-1.064102 1.004142,0 2.008284,0 3.012419,0 0.830522,-0.11493 2.121648,0.231972 2.658089,-0.17735 1.181298,0 2.36259,0 3.543893,0 1.26987,0.0876 3.029764,-0.314619 3.543184,0.531694 z"
       style="stroke-width:0.354509;fill:#c8eaec;fill-opacity:1;stroke:#ffffff;stroke-opacity:0.98892993" />
  </g>
</svg>
